<?xml version="1.0" encoding="utf-8"?>
<!-- Generator: Adobe Illustrator 27.5.0, SVG Export Plug-In . SVG Version: 6.00 Build 0)  -->
<svg version="1.1" xmlns="http://www.w3.org/2000/svg" xmlns:xlink="http://www.w3.org/1999/xlink" x="0px" y="0px"
	 viewBox="0 0 1122 800" style="enable-background:new 0 0 1122 800;" xml:space="preserve">
<g id="shadow">
	<rect style="fill:#F9FAFB;" width="1122" height="800"/>
</g>
<g id="Layer_1">
	<g>
		<g>
			<g>
				<path style="fill:#A9D3D5;" d="M154.391,343.722c0.529,100.932,1.25,174.667,3.592,261.448
					c299.374-4.7,493.895-0.491,782.06-3.524c1.311-95.671-0.237-154.742-0.757-257.647
					C694.231,351.267,162.997,336.522,154.391,343.722z"/>
			</g>
			<g>
				<polygon style="fill:#B35513;" points="982.086,648.396 154.303,648.396 154.303,678.196 193.545,678.196 193.545,750.944 
					217.978,750.944 217.978,678.196 902.122,678.196 902.122,741.303 926.555,741.303 926.555,678.196 982.086,678.196 				"/>
			</g>
			<g>
				<path style="fill:#A9D3D5;" d="M169.661,558.882c-13.721,13.519-27.31,21.979-35.806,33.785
					c302.956-3.561,525.466-5.167,817.068-8.405c-15.799-12.555-5.245-11.295-21.521-30.561
					C681.39,557.052,178.421,557.878,169.661,558.882z"/>
			</g>
			<g>
				<path style="fill:#A9D3D5;" d="M158.244,588.886c-0.089,27.635,0.195,47.82,2.084,71.564
					c311.736-3.886,514.244-4.421,814.298-7.753c1.971-26.21,0.734-42.373,0.844-70.548
					C720.274,586.266,167.25,586.839,158.244,588.886z"/>
			</g>
			<g>
				<path style="fill:#A9D3D5;" d="M137.631,683.977c-19.034,0-31.045-29.712-31.901-53.334
					c-1.743-48.074-3.481-96.372,0.026-144.257c0.435-5.938,0.978-12,2.88-17.341c12.484-35.055,55.826-17.713,55.826,20.116
					c0,0.149,0,157.22,0,157.22C164.461,667.145,152.449,683.977,137.631,683.977z"/>
			</g>
			<g>
				<path style="fill:#A9D3D5;" d="M966.124,683.977c-19.034,0-31.045-29.712-31.902-53.334
					c-1.742-48.074-3.481-96.372,0.026-144.257c0.435-5.938,0.978-12,2.88-17.341c12.484-35.055,55.826-17.713,55.826,20.116
					c0,0.149,0,157.22,0,157.22C992.954,667.145,980.942,683.977,966.124,683.977z"/>
			</g>
		</g>
		<g>
			<g>
				<g>
					<path style="fill:#C7B299;" d="M175.66,549.9c0.408,2.482,0.89,5.146,2.125,6.731c1.569,2.014,3.743,1.555,5.626,0.973
						c28.241-8.736,51.325-22.652,69.585-40.193c-5.791-32.835-10.026-66.626-12.526-100.041
						c-17.4-11.394-35.952-4.808-58.08-12.003c-5.594-1.819-11.544-4.535-17.466-5.973c-5.978-1.451-11.433,4.093-10.521,10.619
						C161.004,457.246,168.106,503.957,175.66,549.9z"/>
				</g>
				<g style="opacity:0.41;">
					<path d="M177.367,416.318c26.159,5.316,46.04,10.826,61.705,16.463c2.462,0.886,3.842,9.526,1.38,8.802
						c-15.495-4.554-35.158-8.671-61.026-12.132C173.777,428.695,171.637,415.154,177.367,416.318z"/>
				</g>
				<g style="opacity:0.41;">
					<path d="M176.51,462.396c28.14-4.428,49.51-2.87,66.208,2.435c2.493,0.792,2.857,9.447,0.356,8.824
						c-16.371-4.083-37.154-3.944-64.412,2.466C172.812,477.497,170.615,463.324,176.51,462.396z"/>
				</g>
				<g style="opacity:0.41;">
					<path d="M185.656,512.547c26.158-9.799,45.71-15.882,60.92-19.525c2.337-0.56,3.727,8.202,1.402,8.944
						c-15.029,4.799-34.346,12.385-60.185,24.212C182.216,528.731,180.007,514.663,185.656,512.547z"/>
				</g>
			</g>
		</g>
	</g>
	<g>
		<g>
			<path style="fill:#999999;" d="M800.307,538.454c-8.371-37.387-2.627-82.721,1.103-121.04c-47.704,1.281-95.471-0.537-143-5.443
				c0.181,24.942,0.363,49.885,0.544,74.828c0.126,17.374-3.877,45.095,2.469,60.076c2.855,6.741,61.046,3.8,69.027,3.899
				c22.584,0.28,49.905,2.249,71.472-5.853C801.333,542.795,800.796,540.638,800.307,538.454z"/>
		</g>
		<g style="opacity:0.32;">
			<path style="fill:#272525;" d="M740.343,415.954c-9.458-0.549-7.67,7.621-7.077,13.54c1.104,11.008-0.248,22.818-0.388,33.887
				c-0.163,12.875-1.937,25.104-1.937,37.993c0,16.308-1.08,33.099-0.837,49.153c5.888,1.637,16.891,0.738,20.71-4.898
				c4.104-6.059,4.304-15.259,4.869-22.275c0.896-11.131,1.793-22.262,2.689-33.393c0.659-8.187,1.319-16.419,0.776-24.617
				c-0.798-12.04-4.163-23.653-7.62-35.076C749.587,423.848,746.336,416.302,740.343,415.954z"/>
		</g>
		<g>
			<g>
				<path style="fill:#F0F0F0;" d="M903.99,553.501c-0.023,2.295-0.099,4.78-1.283,6.72c-1.52,2.49-4.288,3.198-6.768,3.663
					c-43.686,8.182-94.032,9.322-150.202,1.75c1.976-48.948-1.299-98.683-9.985-149.118c45.211-11.458,90.002,2.207,127.689-1.476
					c13.642-1.333,26.908-4.904,39.503-0.759C904.099,461.424,904.441,507.783,903.99,553.501z"/>
			</g>
			<g style="opacity:0.41;">
				<path style="fill:#95A6B0;" d="M885.536,430.172c-45.82,1.422-91.535,4.83-137.06,10.217c-8.193,0.97-8.287,13.938,0,12.957
					c45.525-5.387,91.24-8.795,137.06-10.217C893.871,442.87,893.897,429.912,885.536,430.172z"/>
			</g>
			<g style="opacity:0.41;">
				<path style="fill:#95A6B0;" d="M897.55,474.9c-48.48-1.987-96.913,2.211-144.361,12.341c-8.17,1.744-4.704,14.234,3.445,12.494
					c46.348-9.895,93.569-13.818,140.917-11.878C905.908,488.199,905.875,475.241,897.55,474.9z"/>
			</g>
			<g style="opacity:0.41;">
				<path style="fill:#95A6B0;" d="M895.71,522.683c-46.926,0.252-93.821,2.008-140.635,5.266c-8.287,0.577-8.343,13.537,0,12.957
					c46.814-3.257,93.708-5.013,140.635-5.266C904.063,535.594,904.068,522.638,895.71,522.683z"/>
			</g>
		</g>
	</g>
	<g>
		<g>
			<g>
				<path style="fill:#EACDB0;" d="M353.945,243.683c-7.922-1.023-15.844-2.047-23.767-3.07c0.112-6.37,0.733-12.73,1.857-19.001
					c-6.554-2.525-14.103-6.244-15.051-13.203c-0.299-2.192,0.144-4.409,0.585-6.577c1.824-8.961,3.647-17.922,5.471-26.883
					c0.631-3.099,1.299-6.289,3.072-8.908c3.112-4.596,8.942-6.473,14.436-7.26c14.02-2.008,29.13,1.465,39.673,10.921
					c2.806,2.517,5.322,5.517,6.486,9.102c1.794,5.528,0.152,11.518-1.49,17.093c-1.516,5.146-3.031,10.292-4.547,15.438
					c-1.743,5.919-4.206,12.633-10.02,14.699c-3.087,1.097-6.679,0.643-9.494,2.319C356.193,231.306,356.634,238.57,353.945,243.683
					z"/>
			</g>
			<g>
				<path style="fill:#3A3029;" d="M437.112,156.242c1.437-2.209,2.977-4.336,4.689-6.322c3.708-4.303,8.227-7.952,11.25-12.761
					c3.023-4.809,4.233-11.414,0.913-16.023c-2.142-2.975-5.716-4.536-9.2-5.675c-11.481-3.752-23.975-4.354-35.764-1.723
					c-11.229,2.506-21.342,6.908-32.437,2.385c-10.424-4.249-18.085-2.871-29.219,0.732c-12.048,3.9-28.082,4.429-39.052,10.114
					c-4.581,2.374-8.293,6.186-11.224,10.432c-10.155,14.71-10.823,35.388-1.637,50.722c2.061,3.44,4.555,6.603,7.185,9.63
					c5.443,6.267,11.948,14,19.618,16.49c0.39-6.916-5.267-28.928,0.216-34.443c8.703-8.752,27.682-5.046,38.081-2.519
					c11.343,2.756,21.277,11.142,32.542,13.204c8.106,1.484,18.618-2.201,25.667-6.204
					C427.441,179.339,431.869,164.305,437.112,156.242z"/>
			</g>
		</g>
	</g>
	<g>
		<g>
			<polygon style="fill:#EACDB0;" points="506.13,329.856 516.517,325.323 532.483,313.916 530.473,300.284 515.668,306.39 
				514.598,303.214 503.753,304.587 490.714,315.561 490.756,330.32 			"/>
		</g>
		<g>
			<polygon style="fill:#CFB2A4;" points="314.866,293.681 417.819,358.536 490.422,335.382 490.394,310.159 416.556,320.639 
				347.107,231.003 			"/>
		</g>
	</g>
	<g>
		<g>
			<g>
				<g>
					<path style="fill:#D2D6D5;" d="M639.216,488.758l-258.503-74.154c-12.599-3.768-14.183-28.31-7.58-35.134L622.341,47.263
						c1.582-2.304,3.884-3.373,6.195-2.879l233.439,31.902c11.46,5.578,16.242,30.224,12.678,36.086L647.746,485.677
						C646.097,488.391,641.758,489.428,639.216,488.758z"/>
				</g>
				<g>
					<path style="fill:#E6E6E6;" d="M635.37,465.707l-257.608-69.463c-5.791-1.561-8.279-10.937-4.397-16.599l242.214-353.33
						c1.559-2.275,3.838-3.321,6.134-2.817l240.262,52.788c5.383,1.183,7.844,10.388,4.334,16.18L642.097,462.464
						C640.473,465.144,637.894,466.387,635.37,465.707z"/>
				</g>
				<g style="opacity:0.13;">
					<path style="fill:#333333;" d="M533.336,405.509c-0.514,6.228-7.49,10.26-15.595,9.009
						c-8.121-1.254-14.305-7.337-13.799-13.588c0.507-6.254,7.518-10.29,15.646-9.013
						C527.701,393.191,533.849,399.277,533.336,405.509z"/>
				</g>
				<g style="opacity:0.53;">
					<path style="fill:#333333;" d="M849.64,146.659l-9.734,16.795c-1.041,1.795-2.983,2.102-4.339,0.685l0,0
						c-1.357-1.418-1.613-4.025-0.571-5.822l9.743-16.809c1.041-1.797,2.983-2.098,4.337-0.675l0,0
						C850.428,142.256,850.68,144.864,849.64,146.659z"/>
				</g>
				<g style="opacity:0.53;">
					<path style="fill:#333333;" d="M832.134,174.963l-9.737,16.8c-1.041,1.796-2.987,2.108-4.348,0.697l0,0
						c-1.361-1.412-1.621-4.014-0.579-5.812l9.746-16.814c1.042-1.797,2.987-2.105,4.345-0.687l0,0
						C832.919,170.564,833.175,173.168,832.134,174.963z"/>
				</g>
			</g>
			<g>
				<polygon style="fill:#EEF1F4;" points="398.15,343.49 671.17,414.486 855.349,110.551 600.201,48.747 				"/>
			</g>
		</g>
		<g>
			<g>
				<polygon style="fill:#EEF1F4;" points="669.186,415.761 397.319,346.227 601.347,50.402 855.093,112.062 				"/>
			</g>
			<g>
				<polygon style="fill:#7790A0;" points="841.13,134.873 585.505,72.512 601.459,49.385 855.655,111.145 				"/>
			</g>
			<g>
				<polygon style="fill:#F4DD69;" points="702.306,340.897 467.609,281.572 575.394,124.171 801.651,179.829 				"/>
			</g>
			<g>
				<polygon style="fill:#E4E4E4;" points="495.039,325.213 441.018,311.488 443.634,307.667 497.609,321.371 				"/>
			</g>
			<g>
				<g>
					<polygon style="fill:#BA9BC9;" points="610.842,119.674 577.905,111.589 594.792,86.928 627.536,94.931 					"/>
				</g>
				<g>
					<polygon style="fill:#B0B0B0;" points="686.156,116.257 634.63,103.651 636.934,100.219 688.417,112.807 					"/>
				</g>
				<g>
					<polygon style="fill:#E4E4E4;" points="756.858,140.974 630.371,109.994 627.114,114.847 753.747,145.889 					"/>
				</g>
			</g>
			<g>
				<polygon style="fill:#FFFFFF;" points="683.649,361.246 447.892,301.45 461.504,281.572 696.201,340.897 				"/>
			</g>
			<g>
				<g>
					<polygon style="fill:#FFFFFF;" points="693.653,329.138 477.69,274.636 480.247,270.886 696.025,325.307 					"/>
				</g>
				<g>
					<polygon style="fill:#D6A5B4;" points="592.626,303.642 477.147,274.499 479.705,270.749 595.086,299.849 					"/>
				</g>
			</g>
			<g>
				<path style="fill:#E4E4E4;" d="M453.275,328.289c-3.119,4.595-10.306,7.141-16.044,5.679c-5.735-1.462-7.831-6.372-4.691-10.957
					c3.133-4.575,10.299-7.099,16.013-5.646C454.269,318.817,456.387,323.704,453.275,328.289z"/>
			</g>
			<g>
				<path style="fill:#E4E4E4;" d="M480.871,335.314c-3.091,4.608-10.265,7.162-16.014,5.696c-5.747-1.465-7.875-6.387-4.763-10.985
					c3.105-4.588,10.257-7.119,15.983-5.664C481.805,325.817,483.955,330.717,480.871,335.314z"/>
			</g>
			<g>
				<path style="fill:#E4E4E4;" d="M508.523,342.354c-3.063,4.62-10.223,7.182-15.984,5.714c-5.758-1.468-7.919-6.403-4.835-11.014
					c3.077-4.6,10.216-7.14,15.953-5.682C509.397,332.831,511.579,337.744,508.523,342.354z"/>
			</g>
			<g>
				<path style="fill:#E4E4E4;" d="M536.232,349.408c-3.034,4.633-10.181,7.203-15.953,5.732c-5.77-1.471-7.964-6.419-4.908-11.042
					c3.049-4.613,10.174-7.16,15.923-5.699C537.044,339.86,539.259,344.785,536.232,349.408z"/>
			</g>
		</g>
	</g>
	<g>
		<path style="fill:#544C48;" d="M402.628,494.326c11.607-3.1,23.047-6.727,34.056-11.518c11.754-5.115,23.028-11.557,35.411-14.871
			c12.383-3.313,26.54-3.058,36.922,4.461c15.742,11.402,12.621,34.527-0.475,46.349c-11.039,9.965-23.869,17.74-36.988,24.745
			c-52.267,27.907-110.575,44.432-169.712,48.098c-21.199,1.314-45.939,1.156-64.567-10.675
			c-16.965-10.775-33.199-34.28-33.246-54.87c-0.016-7.162,1.918-14.539,6.574-19.981c4.656-5.442,12.312-8.568,19.23-6.714
			c6.111,1.638,10.649,6.625,15.985,10.024c9.705,6.182,21.83,6.963,33.334,6.726c32.158-0.662,63.785-7.827,95.15-14.958
			C383.76,498.99,393.249,496.83,402.628,494.326z"/>
	</g>
	<g>
		<path style="fill:#CFB2A4;" d="M304.907,242.792c-73.384,60.236-108.009,159.209-105.066,254.104
			c0.108,3.477,0.343,7.191,2.438,9.968c1.794,2.377,4.657,3.66,7.435,4.731c24.653,9.503,51.793,9.758,78.205,9.051
			c26.916-0.72,53.626-3.262,80.481-4.75c8.471-0.47,21.24,1.435,26.391-6.225c4.866-7.235,1.82-28.351,1.351-36.789
			c-2.876-51.708-23.57-100.896-23.71-152.921c-0.049-18.342,2.49-36.967-1.575-54.853
			C362.566,228.627,332.445,220.188,304.907,242.792z"/>
	</g>
	<g>
		<g>
			<polygon style="fill:#EACDB0;" points="469.033,425.418 480.367,425.477 499.583,421.508 503.262,408.228 487.252,407.82 
				487.559,404.482 477.086,401.349 460.721,406.108 454.787,419.621 			"/>
		</g>
		<g>
			<polygon style="fill:#CFB2A4;" points="308.772,314.935 376.67,415.906 452.433,424.115 462.615,401.038 390.853,380.74 
				363.62,270.667 			"/>
		</g>
	</g>
</g>
</svg>
